<?xml version="1.0" encoding="UTF-8"?><svg id="Layer_1" xmlns="http://www.w3.org/2000/svg" viewBox="0 0 301 101"><defs><style>.cls-1,.cls-2{fill:#fff;}.cls-2{stroke:#231f20;stroke-miterlimit:10;}</style></defs><rect class="cls-2" x=".5" y=".5" width="300" height="100"/><rect x="3.5" y="3.5" width="294" height="94"/><g><path class="cls-1" d="M35.89,33.12l8.03,25.02,8-25.02h11.41v35.96h-8.69v-8.4l.84-17.19-8.69,25.59h-5.73l-8.72-25.61,.84,17.22v8.4h-8.67V33.12h11.39Z"/><path class="cls-1" d="M83.51,69.08c-.3-.54-.56-1.34-.79-2.4-1.53,1.93-3.67,2.89-6.42,2.89-2.52,0-4.66-.76-6.42-2.29-1.76-1.52-2.64-3.44-2.64-5.74,0-2.9,1.07-5.09,3.21-6.57,2.14-1.48,5.25-2.22,9.34-2.22h2.57v-1.41c0-2.47-1.06-3.7-3.19-3.7-1.98,0-2.96,.98-2.96,2.93h-8.32c0-2.58,1.1-4.68,3.3-6.29,2.2-1.61,5-2.42,8.41-2.42s6.1,.83,8.08,2.49c1.98,1.66,2.99,3.94,3.04,6.84v11.83c.03,2.45,.41,4.33,1.14,5.63v.42h-8.32Zm-5.21-5.43c1.04,0,1.9-.22,2.58-.67,.68-.44,1.17-.95,1.47-1.51v-4.27h-2.42c-2.9,0-4.35,1.3-4.35,3.9,0,.76,.26,1.37,.77,1.84,.51,.47,1.16,.7,1.95,.7Z"/><path class="cls-1" d="M105.99,57.42l4.45-15.07h8.92l-10.89,31.2-.47,1.14c-1.55,3.46-4.28,5.19-8.2,5.19-1.09,0-2.23-.16-3.43-.49v-5.93h1.09c1.17,0,2.06-.17,2.68-.51,.62-.34,1.07-.94,1.37-1.82l.67-1.78-9.29-26.99h8.89l4.22,15.07Z"/><path class="cls-1" d="M144.55,54.76h-13.98v14.33h-8.67V33.12h24.06v6.69h-15.39v8.27h13.98v6.67Z"/><path class="cls-1" d="M157.96,69.08h-8.35V31.14h8.35v37.94Z"/><path class="cls-1" d="M173.77,57.42l4.45-15.07h8.92l-10.89,31.2-.47,1.14c-1.55,3.46-4.28,5.19-8.2,5.19-1.09,0-2.23-.16-3.43-.49v-5.93h1.09c1.17,0,2.06-.17,2.68-.51,.62-.34,1.07-.94,1.37-1.82l.67-1.78-9.29-26.99h8.89l4.22,15.07Z"/></g><g><path class="cls-1" d="M273.44,16.58c-1.69,0-3.06,1.37-3.06,3.06v55.59c0,1.69-1.37,3.06-3.06,3.06h-3.96c-1.27,0-2.42-.8-2.87-1.99l-20.49-54.65c-1.14-3.04-4.09-5.08-7.33-5.08s-6.19,2.04-7.33,5.08l-21.98,58.62c-.59,1.58,.21,3.35,1.79,3.94,.35,.13,.72,.2,1.07,.2,1.24,0,2.41-.76,2.87-1.99l21.98-58.62c.25-.66,.89-1.11,1.6-1.11s1.35,.45,1.6,1.11l20.49,54.64c1.34,3.56,4.79,5.96,8.6,5.96h3.96c5.06,0,9.18-4.12,9.18-9.18V19.64c0-1.69-1.37-3.06-3.06-3.06h0Z"/><circle class="cls-1" cx="232.66" cy="56.26" r="6.32"/></g></svg>