<?xml version="1.0" encoding="UTF-8"?><svg id="Layer_1" xmlns="http://www.w3.org/2000/svg" viewBox="0 0 1024 1024"><defs><style>.cls-1{fill:#fff;}</style></defs><rect class="cls-1" width="1024" height="1024"/><rect x="37.61" y="36.58" width="950" height="950"/><g><path class="cls-1" d="M879.22,141.63c-18.44,0-33.39,14.95-33.39,33.39V781.35c0,18.41-14.98,33.39-33.39,33.39h-43.2c-13.84,0-26.4-8.71-31.26-21.66L514.47,197.05c-12.43-33.15-44.58-55.43-79.98-55.43s-67.55,22.28-79.98,55.43L114.75,836.4c-6.47,17.27,2.27,36.51,19.54,42.99,3.86,1.45,7.82,2.14,11.72,2.14,13.52,0,26.24-8.27,31.27-21.67L417.03,220.5c2.71-7.24,9.73-12.1,17.46-12.1s14.74,4.86,17.46,12.1l223.51,596.02c14.58,38.88,52.27,65,93.79,65h43.2c55.23,0,100.17-44.93,100.17-100.17V175.01c0-18.44-14.95-33.39-33.39-33.39Z"/><circle class="cls-1" cx="434.48" cy="574.35" r="68.91"/></g></svg>